<?xml version="1.0" encoding="UTF-8"?>
<svg id="Laag_1" xmlns="http://www.w3.org/2000/svg" version="1.1" xmlns:sketch="http://www.bohemiancoding.com/sketch/ns" viewBox="0 0 800 800">
  <!-- Generator: Adobe Illustrator 29.5.1, SVG Export Plug-In . SVG Version: 2.1.0 Build 141)  -->
  <defs>
    <style>
      .st0 {
        fill: #15b35e;
        fill-rule: evenodd;
      }
    </style>
  </defs>
  <g id="Page-1" sketch:type="MSPage">
    <g id="Icon-Set" sketch:type="MSLayerGroup">
      <path id="mail" class="st0" d="M750,600c0,5.1-1,9.9-2.4,14.5l-222.6-239.5,225-175v400h0ZM88.9,648.7l225.6-240.4,85.5,64.6,81.8-65,229.3,240.8c-3.6.8-618.6.8-622.2,0h0ZM50,600V200l225,175-222.6,239.5c-1.4-4.6-2.4-9.4-2.4-14.5h0ZM725,150l-325,250L75,150h650ZM700,100H100C44.8,100,0,144.8,0,200v400c0,55.2,44.8,100,100,100h600c55.2,0,100-44.8,100-100V200c0-55.2-44.8-100-100-100h0Z" sketch:type="MSShapeGroup"/>
    </g>
  </g>
</svg>