<?xml version="1.0" encoding="UTF-8"?>
<svg id="Laag_1" xmlns="http://www.w3.org/2000/svg" version="1.1" viewBox="0 0 800 800">
  <!-- Generator: Adobe Illustrator 29.5.1, SVG Export Plug-In . SVG Version: 2.1.0 Build 141)  -->
  <defs>
    <style>
      .st0 {
        fill: #15b35e;
      }
    </style>
  </defs>
  <path class="st0" d="M616.7,731c-73.9,0-145.6-14.5-213.2-43.1-65.2-27.6-123.8-67.1-174.1-117.4-50.3-50.3-89.8-108.9-117.4-174.1-28.6-67.5-43.1-139.3-43.1-213.2s.5-27.1,1.5-40.5c1.2-16.7,2.1-28.8,9.4-41.6,6.3-10.9,16.4-20.4,27.8-25.8,13.2-6.4,25.6-6.4,44.3-6.4h93.9c15.6,0,25.9,0,37.1,4.3,9.8,3.8,18.6,9.9,25.5,17.9,7.8,9,11.3,18.7,16.7,33.4l38.9,106.9c6.2,17,10.2,28.2,9.4,41.7-.8,11.9-4.8,23.3-11.7,33-7.8,11-18,17.2-33.5,26.4l-21,12.6c34.1,62.4,85.3,113.6,147.6,147.7l12.6-21.1c9.3-15.5,15.4-25.7,26.5-33.5,9.7-6.9,21.1-10.9,33-11.7,13.5-.9,24.7,3.2,41.6,9.4l106.9,38.9c14.7,5.3,24.4,8.9,33.4,16.7,7.9,6.9,14.1,15.7,17.9,25.5,4.3,11.1,4.3,21.4,4.3,37v93.9c0,18.7,0,31.1-6.4,44.3-5.5,11.4-14.9,21.5-25.8,27.8-12.7,7.3-24.8,8.2-41.5,9.4-13.4,1-27.1,1.5-40.6,1.5ZM133.8,132c-.6,2.5-1.1,9.3-1.5,15.3-.9,11.9-1.3,24-1.3,36,0,267.8,217.9,485.7,485.7,485.7s24.1-.4,36-1.3c6.1-.4,12.8-.9,15.3-1.5.2-.2.4-.4.6-.6.4-2.9.4-10.4.4-17.6v-93.9c0-6.3,0-12.8-.3-15.2,0,0-.1-.2-.2-.3-2.1-1.1-8.3-3.4-14.2-5.5l-106.9-38.9c-7-2.5-14.1-5.1-16.9-5.7-.1,0-.2,0-.3.1-1.8,2.2-5.7,8.7-9.5,15.1l-27.4,45.6c-8.1,13.5-25,18.8-39.4,12.3-47.4-21.4-90.2-51.1-127.2-88.2-37-37.1-66.7-79.9-88.2-127.2-6.5-14.3-1.2-31.3,12.3-39.4l45.6-27.4c6.3-3.8,12.9-7.7,15.1-9.5,0-.1,0-.2.1-.3-.6-2.8-3.2-10-5.7-16.9l-38.9-106.9c-2.2-5.9-4.4-12-5.5-14.2,0,0-.2-.1-.3-.2-2.4-.3-8.9-.3-15.2-.3h-93.9c-7.3,0-14.7,0-17.6.4-.2.2-.4.4-.6.6ZM667.7,666.4h0ZM668.4,666.2s0,0,0,0c0,0,0,0,0,0ZM668.9,665.2h0ZM530,488.4s0,0,0,0c0,0,0,0,0,0ZM530.5,488.2h0s0,0,0,0ZM133.6,132.3h0s0,0,0,0ZM261.2,131.1s0,0,0,0c0,0,0,0,0,0Z"/>
</svg>